<?xml version="1.0" encoding="UTF-8"?>
<svg id="_레이어_1" data-name="레이어 1" xmlns="http://www.w3.org/2000/svg" xmlns:xlink="http://www.w3.org/1999/xlink" viewBox="0 0 280.69 101.77">
  <defs>
    <style>
      .cls-1 {
        fill: url(#_무제_그라디언트_15-3);
      }

      .cls-2 {
        fill: none;
        stroke: #fff;
        stroke-miterlimit: 10;
        stroke-width: 1.95px;
      }

      .cls-3 {
        fill: url(#_무제_그라디언트_15);
      }

      .cls-4 {
        fill: #fff;
      }

      .cls-5 {
        fill: url(#_무제_그라디언트_15-2);
      }

      .cls-6 {
        fill: url(#_무제_그라디언트_6);
      }
    </style>
    <linearGradient id="_무제_그라디언트_6" data-name="무제 그라디언트 6" x1="142.64" y1="27.57" x2="142.64" y2="91.83" gradientUnits="userSpaceOnUse">
      <stop offset="0" stop-color="#fff"/>
      <stop offset="1" stop-color="#4452b1"/>
    </linearGradient>
    <linearGradient id="_무제_그라디언트_15" data-name="무제 그라디언트 15" x1="199.91" y1="104.14" x2="224.94" y2="104.14" gradientTransform="translate(467.86 212.65) rotate(-174.68)" gradientUnits="userSpaceOnUse">
      <stop offset="0" stop-color="#fff"/>
      <stop offset="1" stop-color="#fff" stop-opacity=".2"/>
    </linearGradient>
    <linearGradient id="_무제_그라디언트_15-2" data-name="무제 그라디언트 15" x1="199.16" y1="119.85" x2="205.55" y2="119.85" xlink:href="#_무제_그라디언트_15"/>
    <linearGradient id="_무제_그라디언트_15-3" data-name="무제 그라디언트 15" x1="471.33" y1="143" x2="480.67" y2="143" gradientTransform="translate(-181.87 485.02) rotate(-84.68)" xlink:href="#_무제_그라디언트_15"/>
  </defs>
  <path class="cls-6" d="M65.17,47.69c1.48-1.6-.56-2.24-.72-4.4s.09-2.19-.05-4.36c-.21-3.65,1.94-4.43-.33-7.3-2.54-3.2-3.54-2.39-7.49-3.47-3.09-.84-3.27-.26-6.42-.76s-3.16-.07-6.36,0-3.14.22-6.29.86-3.3-.05-6.46.55-2.99,1.47-6.16,2.04-3.21.02-6.41.22c-2.2.13-2.19.61-4.37.35s-2.46-1.95-4.31-.77-.37,2.15-1.05,4.23-2.04,1.89-1.93,4.07,1.29,1.86,2.2,3.81-.2,2.77,1.34,4.26c1.54,1.49,2.11.83,4.09,1.65s1.93,1.66,4.07,1.62c2.64-.05,3.42.16,5.39-1.6,1.48-1.32-.98-3.49.9-4.14,2.31-.81,2.2.87,4.6,1.32.48.09.06-.4.54-.49.7-.12,1.43-.31,1.14.33-.51,1.06-1.84.02-2.05,1.18-.49,2.69.48,2.7.45,5.44-.04,3.49.59,3.54-.07,6.97-.62,3.21-1.66,2.98-2.44,6.16s-1.17,3.24-1,6.5,1.65,3,2.75,6.18,1.03,3.21,1.31,6.56c.32,3.85-2.88,4.47-.45,7.48,2.58,3.19,3.85,1.31,7.94,1.31s5.52,2.08,8.39-.81c2.72-2.72.38-4.17.33-8.01-.04-3.21-.1-3.22-.53-6.4s-.9-3.11-1-6.31.65-3.13.89-6.3.6-3.26.34-6.44c-.27-3.41-1.14-3.31-1.75-6.68-.39-2.1-1.05-2.09-.6-4.18.31-1.38.87-1,1.53-2.26.21-.4.01-.07.27-.44,1.05-1.58.39-2.39,2.28-2.32,1.62.07.42,1.1,1.64,2.15,1.15.99,1.4.39,2.86.82,2.14.62,2.08.78,4.28,1.06s2.08.28,4.19.75c2.32.51,3.07,1.17,4.53-.43h.01ZM89.37,50.06c-2.75-1.42-3.18-.44-6.21-1.05s-3-.61-6.1-.64c-2.92-.02-2.8.51-5.67,1.06s-3.03-.22-5.61,1.15c-2.42,1.28-2.36,1.34-4.26,3.31s-2.13,1.84-3.38,4.28c-1.39,2.66-.37,2.96-1.03,5.88s-1.25,2.8-1.69,5.77c-.35,2.38-.11,2.39-.23,4.8s-.76,2.41.06,4.67c.82,2.26,1.25,1.88,2.86,3.63s1.58,1.77,3.36,3.35c1.61,1.43,1.87,1.05,3.63,2.28s1.59,1.43,3.48,2.46c2.06,1.11,2.03,1.1,4.2,1.99s1.99,1.32,4.32,1.56,2.31-.42,4.7-.82,2.53.28,4.74-.73c2.21-1.01,1.71-1.59,3.57-3.13s2.75-.67,4.1-2.66c1.27-1.86.29-2.31.96-4.46s.54-2.2,1.2-4.35.94-2.09,1.61-4.26,1.86-2.04,1.84-4.32c-.02-3.03-1.15-2.93-1.86-5.88s-.06-3.18-1.48-5.85c-1.25-2.35-2.44-1.43-3.99-3.59s-.79-3.21-3.16-4.42h.01ZM86.51,72.66c-1.99,1.42-2.22.53-4.63.92s-2.36,1.38-4.8,1.36-2.46-.49-4.85-.93-2.93.49-4.96-.88c-2.28-1.53-2.58-2.06-2.59-4.81s.29-3.33,2.71-4.58c2.15-1.1,2.5-.12,4.91.06s2.36.75,4.78.73,2.41-.22,4.82-.44,2.89-1.84,5.03-.7c2.37,1.28,1.97,2.32,2.69,4.92s-.87,2.77-3.1,4.35h-.01ZM209.61,73.44c-1.64,0-3,.15-4.32.42s-2.58.6-3.84.89c-1.26.29-2.77-1.01-4.24-1.01-2.87,0-5.39.9-6.6-.09-1.2-1-1.42-3.2-1.42-4.73,2.98-.75,3.16,1.72,6.24,1.72s3.08-.24,6.16-.24,3.08-1.09,6.16-1.09,4.84-1.76,6.47-2.93c1.64-1.17,3.11-2.02,3.11-4.84s-1.09-4.87-2.78-7.12c-.88-1.17-1.43-2.65-2.65-3.58-1.14-.86-2.22-2.14-3.64-2.78-1.53-.7-3.36-1.05-5.08-1.38-1.61-.32-3.41-.24-5.19-.24-.05,0-.49-1.05-.54-1.05,1.75-.54,3.53-.68,5.18-1.28s3.35-1.26,4.98-1.91,3.62-.64,5.24-1.32,3.79-.23,5.42-.9,2.59-3.22,4.25-3.85,3.9.35,5.62-.18,3.51-.37,5.26-.78,3.09-2.52,4.89-2.78,3.54-.5,5.37-.61c1.8-.1,3.85.4,6.07.5,1.86.09,4.03-.9,6.18-.6,1.87.27,3.64,1.99,5.72,2.48,1.86.44,3.63,1.78,5.64,2.44-1.49-.54-2.83-2.2-4.51-2.74-1.55-.5-3.37-.27-5.03-.72s-2.87-2.28-4.53-2.66-3.6.86-5.26.59-3.26-.81-4.91-.95c-1.92-.17-3.7.21-5.45.23-1.92.02-3.86-1.6-5.61-1.38-1.88.23-3.43,2.05-5.15,2.46-1.83.43-4.08-.75-5.79-.2s-2.76,3.26-4.47,3.9-3.69.59-5.41,1.22-3.15,2.25-4.92,2.77-3.79.12-5.63.48c-1.73.33-3.66-.21-5.56-.07-1.75.12-3.51-.49-5.42-.59-1.73-.09-3.63.86-5.55.55-1.7-.27-3.04-1.73-4.57-2.11-1.7-.42-3.15-1-4.6-1.49-1.71-.57-4.12.95-5.47.38-2.08-1.04-2.09-1.15-4.1-2.3-1.82-1.25-3.86-2.11-6.6-2.87-1.93-.53-3.71-2.22-5.97-2.47-2-.22-4.17.22-6.42.22s-4.23,1.18-6.28,1.45c-2.22.29-4.82-1.62-6.8-1.01-1.82.56-2.38,3.6-3.85,4.48-1.59.95-3.02,1.45-4.18,2.78-1.17,1.33-1.86,2.54-2.42,4.29-.5,1.59-.29,3.07-.29,4.98,0,1.73-2,3.59-1.55,5.01.5,1.59,2.92,1.99,3.98,3.15,1.07,1.16,1.47,3.13,2.96,4.04,1.32.82,2.78,1.76,4.45,2.38,1.84.7,3.91,1.17,6.01,1.8,1.91.56,4.13.32,6.24.82,2.16.53,1.83,1.91,3.98,2.42,1.88.42,4.28-.9,5.51-.15,1.23.76,1.59,2.75,1.59,3.92,0,1-.83,1.75-1.71,2.33s-2.44,1.34-4.73,1.34-4.28-1.61-6.53-2.44c-2.26-.82-4.93-.42-7.1-1.27-2.17-.86-4.13-2.75-6.29-2.8-2.76-.11-4.52,2.49-6.57,4.43-1.06,1-2.04,1.65-2.55,3-.48,1.26-1.45,2.47-1.45,4.02,0,2.52.35,5.4,2.05,7.3.89,1,3.33.32,4.52,1.16,1.07.76,1.91,1.81,3.22,2.43,1.43.67,2.47,2.38,4.03,2.89s3.27.09,4.89.42c1.65.33,3.18,1.42,4.81,1.59s3.37.48,5.03.48c2.37,0,4.74.1,6.83-.18,2.35-.32,4.14-2.57,6.12-3.25,1.81-.62,2.89-1.87,4.32-2.85,1.53-1.04,2.93-1.65,4.02-3.09,1.12-1.48,3.09-2.55,3.62-4.52.46-1.72-1-3.74-1-5.83,0-1.72.15-3.04-.22-4.46-.43-1.62-.51-3.03-1.43-4.25-.89-1.2-2.37-1.51-3.63-2.47-1.15-.88-1.83-2.35-3.29-3.02-1.61-.75-2.76-3.08-4.64-3.7-1.69-.56-3.68-.86-5.59-1.33-2.46-.59-2.54-.22-5-.82-3.22-.82-5.37-1.59-6.78-2.17s-2.99-.65-2.99-1.87c0-1,1.33-1.33,2.39-1.94,1.05-.61,2.33-1.86,4.39-1.86,2.28,0,4.82-.67,6.85-.11s3.79,1.83,5.64,2.42c1.84.59,3.43.6,5.13.6,1.39.12,3.29,1.36,5.63,1.43,1.7.05,3.58-1.26,5.66-1.31,2.22-.06,4.41,1.29,6.45,1.1,2.2-.21,4.36-.21,6.4-.55-.12.07.27.6.15.67-1.71,1-3.88,1.1-5.2,2.48s-2.8,2.77-3.73,4.53c-.96,1.83-1.32,4.01-1.78,6.13-.43,1.97.21,4.07.21,6.3,0,1.62-.39,3.11-.2,4.56.22,1.6.12,3.19.6,4.58.51,1.51,2.11,2.33,2.93,3.58,1.1,1.69,1.53,3.71,2.94,4.96s3.37,1.72,5.17,2.53c1.8.79,3.15,3.14,5.08,3.54s4.07.76,6.07.76c1.69,0,3.13-2.86,4.63-3.03,1.69-.18,3.35.66,4.79.26,1.64-.45,3.02-1.1,4.34-1.82,1.69-.92,2.37-2.24,3.25-3.51.98-1.39,2.22-2.44,2.22-4.26,0-2.93.34-6.22-1.18-7.88-1.53-1.67-4.53-.98-6.88-.98l.02-.04ZM202.64,62.15c1.17.88,2.1,1.99,2.33,2.82.29.82-.55,2.05-1.43,2.05-2.33,0-2.33-1.47-4.65-1.47s-2.33,1.58-4.67,1.58-2.49.18-4.75-.39c0-1.17,1.62-1.66,2.88-2.77s2.28-1.58,4.86-1.58c2.22,0,4.26-1.12,5.44-.24h-.01ZM243.2,46.35c-1.87.13-1.82.75-3.7.86s-2.14-1.27-3.92-.55-.96,1.7-2.7,2.33-1.77-.57-3.53-.07c-1.59.44-1.23,1.17-2.31,2.42s-1.04,1.18-1.8,2.59-1.67,1.27-1.88,2.92.67,1.69,1.28,3.25.32,1.76,1.5,2.92,1.14,1.37,2.61,1.99c1.67.7,1.86.35,3.64.65,1.89.31,1.89,0,3.79-.23s1.83-.49,3.7-1,1.84-.76,3.74-.66c2.02.11,2.14.18,3.64,1.51,1.31,1.16.75,1.49,1.44,3.1.29.7.83.59.87,1.34.02.46-.39-.26-.82-.42-2.83-1-2.76-1.12-5.75-1.42-1.83-.18-1.76.12-3.59.01s-1.71-.55-3.53-.68c-1.92-.15-2.08-.64-3.93-.11s-1.45,1.56-3.19,2.43c-1.64.82-2,.15-3.55,1.14-1.44.93-1.61.88-2.53,2.33s-.34,1.65-.59,3.35.18,1.72-.15,3.36c-.38,1.93-2.09,1.8-1.69,3.71s1.69,1.23,2.63,2.93.16,1.97,1.22,3.55,1.39,1.33,3.14,2.2,1.7.92,3.63,1.01,1.86-.55,3.76-.51c2.2.05,2.1.67,4.3.48s2.16-.2,3.96-1.51c2.26-1.67,2.61-1.4,3.68-4.01.95-2.33-.49-2.57.55-4.86.45-.99,1.15-.82,1.82.04.7.9.12.98.01,2.11-.16,1.67-.95,1.76-.15,3.24s1.18,1.16,2.52,2.28.93,1.54,2.37,2.37c1.53.88,1.75.88,3.51,1.05s2.08.38,3.69-.4,1.2-1.44,2.31-2.86c.99-1.27.98-1.28,1.72-2.71.79-1.51.99-1.47,1.07-3.18.11-2.31-.45-2.22-.64-4.52s.56-2.27.57-4.54-.49-2.26-.73-4.52c-.22-2-.68-1.94-.64-3.96.05-2.15,1.29-2,.9-4.12s-1.09-1.75-2.15-3.62c-.94-1.65-.53-1.83-1.34-3.55s-.88-1.77-2.13-3.24c-1.15-1.36-1.21-1.42-2.78-2.25s-1.86-.1-3.53-.67-1.72-.53-3.33-1.26c-1.78-.81-1.38-1.73-3.21-2.42-1.75-.66-1.95.22-3.81.35h.02ZM245.93,75.49c-2.06.94-2.22,1.32-4.49,1.23s-2.17-.95-4.3-1.75c-1.28-.49-1.98.16-2-1.21s.68-.66,1.95-1.06c2.15-.68,2.09-1.12,4.32-1.37,2.37-.24,2.57-.62,4.79.23,1.1.43.24,1.1.45,2.26.18,1.05.18,1.25-.73,1.66h.01ZM278.38,40s.05.02.09.04c-.05,0-.04-.01-.09-.04ZM267.49,35.69c2.05.75,3.92,1.44,5.5,2.08,3,1.21,4.97,2.11,5.36,2.3-1.83-.89-3.58-1.76-5.31-2.47-1.89-.77-3.77-1.34-5.55-1.92h0Z"/>
  <polygon class="cls-2" points="245.8 30.76 249.58 30.26 253.17 31.68 256.91 31.53 260.6 32.58 261.28 29.19 262.33 25.94 263.78 22.8 262.29 21.39 259.57 19.86 258.62 19.1 258.94 18.39 260.17 17.93 262.05 17.22 262.8 12.97 262.01 11.99 258.56 10.73 255.25 8.96 251.73 7.88 248.26 6.63 244.45 6.47 242.79 6.75 241.43 10.8 242.46 12.86 243.08 13.47 243.03 14.24 241.57 15.71 238.87 14.1 238.19 14.88 237.22 18.07 236.31 21.28 234.07 24.08 234.38 27.67 231.98 30.65 235.86 29.57 239.22 29.46 242.56 29.98 245.8 30.76"/>
  <polygon class="cls-4" points="249.49 0 253.37 1.06 257.25 2.11 260.89 4.03 262.73 6.79 259.99 11.65 256.53 16.15 254.92 16.95 250.84 16.4 246.71 16.05 245.34 12.95 245.78 7.5 246.81 2.13 249.49 0"/>
  <circle class="cls-3" cx="266.01" cy="89.25" r="12.51"/>
  <circle class="cls-5" cx="277.49" cy="74.55" r="3.2"/>
  <circle class="cls-1" cx="4.67" cy="24.34" r="4.67"/>
</svg>