<svg viewBox="0 0 24 24" fill="none" xmlns="http://www.w3.org/2000/svg">
<path d="M20.9286 7.00003C19.3028 4.90717 14.4028 1.50003 9.14284 4.14288C15.7771 3.97145 15.7714 12 8.42855 12C5.8857 12 4.20427 11.3857 3.10284 10.6229M3.07141 15.21C3.66284 15.6029 5.4357 16.3915 7.79998 16.3915C10.7571 16.3915 12.6371 14.0272 16.1828 14.0272C19.02 14.0272 20.04 15.0072 20.9286 15.6772M3.07141 19.0272C3.66284 19.4215 5.4357 20.21 7.79998 20.21C12.2143 20.21 12.65 17.8443 16.3114 17.8443C18.63 17.8443 19.8828 18.83 20.54 19.6743" stroke="currentColor" stroke-linecap="round" stroke-linejoin="round"/>
</svg>