<svg width="98" height="173" viewBox="0 0 98 173" fill="none" xmlns="http://www.w3.org/2000/svg">
<g clip-path="url(#clip0_141_2827)">
<g filter="url(#filter0_d_141_2827)">
<path d="M54.1131 102.6L35.7324 58.6718L8.36475 74.0857L35.9968 112.422L60.9961 170.131C60.9961 170.131 79.2961 168.155 88.8061 153.357L54.1131 102.6Z" fill="#D7C99E"/>
<path d="M17.8645 59.2935C22.2401 56.8996 26.6514 55.6648 30.0174 55.6722L31.0112 60.5699C32.3491 60.8605 34.5569 61.0452 35.854 60.3515C35.4051 63.8964 31.147 68.6074 24.9304 72.0085C17.167 76.2559 9.29194 76.8521 7.34084 73.3409C5.39014 69.8296 10.1014 63.5408 17.8645 59.2935Z" fill="#EFE4C1"/>
<path d="M18.3264 64.7783C18.3264 64.7783 32.493 58.7793 35.7322 58.6718C37.3898 64.555 27.3132 71.1827 22.3258 73.2978L18.3264 64.7783Z" fill="#C0AE74"/>
</g>
<path d="M90.25 41.4236C90.25 43.9253 88.222 45.9534 85.72 45.9534H84.841C82.825 45.9534 81.19 47.5877 81.19 49.6038C81.19 51.6198 82.825 53.2542 84.841 53.2542H86.176C92.803 53.2542 98.176 58.6269 98.176 65.2542V161.146C98.176 167.773 92.803 173.146 86.176 173.146H12C5.3726 173.146 0 167.773 0 161.146V65.2542C0.0002 58.6269 5.3727 53.2542 12 53.2542H13.6748C15.6909 53.2542 17.3252 51.6198 17.3252 49.6038C17.3252 47.5877 15.6909 45.9534 13.6748 45.9534H12.5693C9.9427 45.9534 7.8135 43.8241 7.8135 41.1975V30.8362C7.8135 26.4179 11.3952 22.8362 15.8135 22.8362H82.25C86.668 22.8362 90.25 26.4179 90.25 30.8362V41.4236Z" fill="url(#paint0_linear_141_2827)" fill-opacity="0.4"/>
<path d="M16.5799 4.4405C16.3174 2.0715 18.172 0 20.5556 0H77.709C80.061 0 81.9049 2.019 81.6929 4.3612L77.7039 48.3612C77.5169 50.4219 75.789 52 73.72 52H25.4311C23.3924 52 21.6799 50.4668 21.4554 48.4405L16.5799 4.4405Z" fill="#F4CE98"/>
<path d="M90.25 41.4236C90.25 43.9253 88.222 45.9534 85.72 45.9534H84.841C82.825 45.9534 81.19 47.5877 81.19 49.6038C81.19 51.6198 82.825 53.2542 84.841 53.2542H86.176C92.803 53.2542 98.176 58.6269 98.176 65.2542V161.146C98.176 167.773 92.803 173.146 86.176 173.146H12C5.3726 173.146 0 167.773 0 161.146V65.2542C0.0002 58.6269 5.3727 53.2542 12 53.2542H13.6748C15.6909 53.2542 17.3252 51.6198 17.3252 49.6038C17.3252 47.5877 15.6909 45.9534 13.6748 45.9534H12.5693C9.9427 45.9534 7.8135 43.8241 7.8135 41.1975V30.8362C7.8135 26.4179 11.3952 22.8362 15.8135 22.8362H82.25C86.668 22.8362 90.25 26.4179 90.25 30.8362V41.4236Z" fill="url(#paint1_radial_141_2827)" fill-opacity="0.4"/>
<path d="M73.72 52H25.1914C65.036 52 78.713 20.6667 81.622 5L77.703 48.3601C77.517 50.4213 75.789 52 73.72 52Z" fill="#DBA371"/>
<path d="M33.0879 27C39.163 27 44.0879 22.0751 44.0879 16C44.0879 9.92487 39.163 5 33.0879 5C27.0128 5 22.0879 9.92487 22.0879 16C22.0879 22.0751 27.0128 27 33.0879 27Z" fill="#A27147"/>
<path d="M44.588 34C47.0733 34 49.088 32.2091 49.088 30C49.088 27.7909 47.0733 26 44.588 26C42.1027 26 40.088 27.7909 40.088 30C40.088 32.2091 42.1027 34 44.588 34Z" fill="#A27147"/>
<path d="M74.216 45.3155C73.1693 43.0613 70.6965 41.9882 68.6929 42.9186C66.6892 43.849 65.9134 46.4305 66.9601 48.6846C68.0067 50.9388 70.4795 52.0119 72.4832 51.0815C74.4869 50.1512 75.2627 47.5696 74.216 45.3155Z" fill="#A27147"/>
<path d="M32.0879 27C38.163 27 43.0879 22.0751 43.0879 16C43.0879 9.92487 38.163 5 32.0879 5C26.0128 5 21.0879 9.92487 21.0879 16C21.0879 22.0751 26.0128 27 32.0879 27Z" fill="#D5A479"/>
<path d="M44.088 34C46.2972 34 48.088 32.2091 48.088 30C48.088 27.7909 46.2972 26 44.088 26C41.8789 26 40.088 27.7909 40.088 30C40.088 32.2091 41.8789 34 44.088 34Z" fill="#D5A479"/>
<path d="M74.426 45.769C73.4956 43.7653 71.1171 42.8952 69.1134 43.8256C67.1097 44.756 66.2397 47.1345 67.17 49.1381C68.1004 51.1418 70.4789 52.0119 72.4826 51.0815C74.4863 50.1512 75.3563 47.7726 74.426 45.769Z" fill="#D5A479"/>
</g>
<defs>
<filter id="filter0_d_141_2827" x="2.90039" y="55.6721" width="89.9058" height="122.459" filterUnits="userSpaceOnUse" color-interpolation-filters="sRGB">
<feFlood flood-opacity="0" result="BackgroundImageFix"/>
<feColorMatrix in="SourceAlpha" type="matrix" values="0 0 0 0 0 0 0 0 0 0 0 0 0 0 0 0 0 0 127 0" result="hardAlpha"/>
<feOffset dy="4"/>
<feGaussianBlur stdDeviation="2"/>
<feComposite in2="hardAlpha" operator="out"/>
<feColorMatrix type="matrix" values="0 0 0 0 0 0 0 0 0 0 0 0 0 0 0 0 0 0 0.25 0"/>
<feBlend mode="normal" in2="BackgroundImageFix" result="effect1_dropShadow_141_2827"/>
<feBlend mode="normal" in="SourceGraphic" in2="effect1_dropShadow_141_2827" result="shape"/>
</filter>
<linearGradient id="paint0_linear_141_2827" x1="58.26" y1="62.0726" x2="85.946" y2="191.671" gradientUnits="userSpaceOnUse">
<stop stop-color="white" stop-opacity="0"/>
<stop offset="1" stop-color="white"/>
</linearGradient>
<radialGradient id="paint1_radial_141_2827" cx="0" cy="0" r="1" gradientTransform="matrix(63.7743 -94.0676 102.041 69.1805 31.8872 116.904)" gradientUnits="userSpaceOnUse">
<stop stop-color="white" stop-opacity="0"/>
<stop offset="1" stop-color="white"/>
</radialGradient>
<clipPath id="clip0_141_2827">
<rect width="98" height="173" fill="white"/>
</clipPath>
</defs>
</svg>
