<svg viewBox="0 0 99 174" fill="none" xmlns="http://www.w3.org/2000/svg">
  <path d="M16.5799 4.4405C16.3174 2.0715 18.172 0 20.5556 0H77.709C80.061 0 81.9049 2.019 81.6929 4.3612L77.7039 48.3612C77.5169 50.4219 75.789 52 73.72 52H25.4311C23.3924 52 21.6799 50.4668 21.4554 48.4405L16.5799 4.4405Z" fill="#F4CE98"/>
  
  <path d="M90.25 41.4236C90.25 43.9253 88.222 45.9534 85.72 45.9534H84.841C82.825 45.9534 81.19 47.5877 81.19 49.6038C81.19 51.6198 82.825 53.2542 84.841 53.2542H86.176C92.803 53.2542 98.176 58.6269 98.176 65.2542V161.146C98.176 167.773 92.803 173.146 86.176 173.146H12C5.3726 173.146 0 167.773 0 161.146V65.2542C0.0002 58.6269 5.3727 53.2542 12 53.2542H13.6748C15.6909 53.2542 17.3252 51.6198 17.3252 49.6038C17.3252 47.5877 15.6909 45.9534 13.6748 45.9534H12.5693C9.9427 45.9534 7.8135 43.8241 7.8135 41.1975V30.8362C7.8135 26.4179 11.3952 22.8362 15.8135 22.8362H82.25C86.668 22.8362 90.25 26.4179 90.25 30.8362V41.4236Z" 
        fill="url(#bottle_glass_gradient)" 
        fill-opacity="0.4"/>
  
  <defs>
    <radialGradient id="bottle_glass_gradient" cx="0" cy="0" r="1" gradientTransform="matrix(63.7743 -94.0676 102.041 69.1805 31.8872 116.904)" gradientUnits="userSpaceOnUse">
      <stop stop-color="white" stop-opacity="0"/>
      <stop offset="1" stop-color="white"/>
    </radialGradient>
  </defs>
</svg>