<svg width="272" height="68" viewBox="0 0 272 68" fill="none" xmlns="http://www.w3.org/2000/svg">
<path d="M58.3699 20.5286C59.8499 18.9286 57.8099 18.2886 57.6499 16.1286C57.4899 13.9686 57.7399 13.9386 57.5999 11.7686C57.3899 8.11861 59.5399 7.33861 57.2699 4.46861C54.7299 1.26861 53.7299 2.07861 49.7799 0.998612C46.6899 0.158612 46.5099 0.738612 43.3599 0.238612C40.2099 -0.261388 40.1999 0.168612 36.9999 0.238612C33.7999 0.308612 33.8599 0.458612 30.7099 1.09861C27.5599 1.73861 27.4099 1.04861 24.2499 1.64861C21.0899 2.24861 21.2599 3.11861 18.0899 3.68861C14.9199 4.25861 14.8799 3.70861 11.6799 3.90861C9.47994 4.03861 9.48994 4.51861 7.30994 4.25861C5.12994 3.99861 4.84994 2.30861 2.99994 3.48861C1.14994 4.66861 2.62994 5.63861 1.94994 7.71861C1.26994 9.79861 -0.100059 9.60861 -5.86286e-05 11.7886C0.0999414 13.9686 1.28994 13.6486 2.19994 15.5986C3.10994 17.5486 1.99994 18.3686 3.53994 19.8586C5.07994 21.3486 5.64994 20.6886 7.62994 21.5086C9.60994 22.3286 9.55994 23.1686 11.6999 23.1286C14.3399 23.0786 15.1199 23.2886 17.0899 21.5286C18.5699 20.2086 16.1099 18.0386 17.9899 17.3886C20.2999 16.5786 20.1899 18.2586 22.5899 18.7086C23.0699 18.7986 22.6499 18.3086 23.1299 18.2186C23.8299 18.0986 24.5599 17.9086 24.2699 18.5486C23.7599 19.6086 22.4299 18.5686 22.2199 19.7286C21.7299 22.4186 22.6999 22.4286 22.6699 25.1686C22.6299 28.6586 23.2599 28.7086 22.5999 32.1386C21.9799 35.3486 20.9399 35.1186 20.1599 38.2986C19.3799 41.4786 18.9899 41.5386 19.1599 44.7986C19.3299 48.0586 20.8099 47.7986 21.9099 50.9786C23.0099 54.1586 22.9399 54.1886 23.2199 57.5386C23.5399 61.3886 20.3399 62.0086 22.7699 65.0186C25.3499 68.2086 26.6199 66.3286 30.7099 66.3286C34.7999 66.3286 36.2299 68.4086 39.0999 65.5186C41.8199 62.7986 39.4799 61.3486 39.4299 57.5086C39.3899 54.2986 39.3299 54.2886 38.8999 51.1086C38.4699 47.9286 37.9999 47.9986 37.8999 44.7986C37.7999 41.5986 38.5499 41.6686 38.7899 38.4986C39.0299 35.3286 39.3899 35.2386 39.1299 32.0586C38.8599 28.6486 37.9899 28.7486 37.3799 25.3786C36.9899 23.2786 36.3299 23.2886 36.7799 21.1986C37.0899 19.8186 37.6499 20.1986 38.3099 18.9386C38.5199 18.5386 38.3199 18.8686 38.5799 18.4986C39.6299 16.9186 38.9699 16.1086 40.8599 16.1786C42.4799 16.2486 41.2799 17.2786 42.4999 18.3286C43.6499 19.3186 43.8999 18.7186 45.3599 19.1486C47.4999 19.7686 47.4399 19.9286 49.6399 20.2086C51.8399 20.4886 51.7199 20.4886 53.8299 20.9586C56.1499 21.4686 56.8999 22.1286 58.3599 20.5286H58.3699ZM82.5599 22.8986C79.8099 21.4786 79.3799 22.4586 76.3499 21.8486C73.3199 21.2386 73.3499 21.2386 70.2499 21.2086C67.3299 21.1886 67.4499 21.7186 64.5799 22.2686C61.7099 22.8186 61.5499 22.0486 58.9699 23.4186C56.5499 24.6986 56.6099 24.7586 54.7099 26.7286C52.8099 28.6986 52.5799 28.5686 51.3299 31.0086C49.9399 33.6686 50.9599 33.9686 50.2999 36.8886C49.6399 39.8086 49.0499 39.6886 48.6099 42.6586C48.2599 45.0386 48.4999 45.0486 48.3799 47.4586C48.2599 49.8686 47.6199 49.8686 48.4399 52.1286C49.2599 54.3886 49.6899 54.0086 51.2999 55.7586C52.9099 57.5086 52.8799 57.5286 54.6599 59.1086C56.2699 60.5386 56.5299 60.1586 58.2899 61.3886C60.0499 62.6186 59.8799 62.8186 61.7699 63.8486C63.8299 64.9586 63.7999 64.9486 65.9699 65.8386C68.1399 66.7286 67.9599 67.1586 70.2899 67.3986C72.6199 67.6386 72.5999 66.9786 74.9899 66.5786C77.3799 66.1786 77.5199 66.8586 79.7299 65.8486C81.9399 64.8386 81.4399 64.2586 83.2999 62.7186C85.1599 61.1786 86.0499 62.0486 87.3999 60.0586C88.6699 58.1986 87.6899 57.7486 88.3599 55.5986C89.0299 53.4486 88.8999 53.3986 89.5599 51.2486C90.2199 49.0986 90.4999 49.1586 91.1699 46.9886C91.8399 44.8186 93.0299 44.9486 93.0099 42.6686C92.9899 39.6386 91.8599 39.7386 91.1499 36.7886C90.4399 33.8386 91.0899 33.6086 89.6699 30.9386C88.4199 28.5886 87.2299 29.5086 85.6799 27.3486C84.1299 25.1886 84.8899 24.1386 82.5199 22.9286H82.5299L82.5599 22.8986ZM79.7099 45.4986C77.7199 46.9186 77.4899 46.0286 75.0799 46.4186C72.6699 46.8086 72.7199 47.7986 70.2799 47.7786C67.8399 47.7586 67.8199 47.2886 65.4299 46.8486C63.0399 46.4086 62.4999 47.3386 60.4699 45.9686C58.1899 44.4386 57.8899 43.9086 57.8799 41.1586C57.8699 38.4086 58.1699 37.8286 60.5899 36.5786C62.7399 35.4786 63.0899 36.4586 65.4999 36.6386C67.9099 36.8186 67.8599 37.3886 70.2799 37.3686C72.6999 37.3486 72.6899 37.1486 75.0999 36.9286C77.5099 36.7086 77.9899 35.0886 80.1299 36.2286C82.4999 37.5086 82.0999 38.5486 82.8199 41.1486C83.5399 43.7486 81.9499 43.9186 79.7199 45.4986H79.7099ZM202.81 46.2786C201.17 46.2786 199.81 46.4286 198.49 46.6986C197.17 46.9686 195.91 47.2986 194.65 47.5886C193.39 47.8786 191.88 46.5786 190.41 46.5786C187.54 46.5786 185.02 47.4786 183.81 46.4886C182.61 45.4886 182.39 43.2886 182.39 41.7586C185.37 41.0086 185.55 43.4786 188.63 43.4786C191.71 43.4786 191.71 43.2386 194.79 43.2386C197.87 43.2386 197.87 42.1486 200.95 42.1486C204.03 42.1486 205.79 40.3886 207.42 39.2186C209.06 38.0486 210.53 37.1986 210.53 34.3786C210.53 31.5586 209.44 29.5086 207.75 27.2586C206.87 26.0886 206.32 24.6086 205.1 23.6786C203.96 22.8186 202.88 21.5386 201.46 20.8986C199.93 20.1986 198.1 19.8486 196.38 19.5186C194.77 19.1986 192.97 19.2786 191.19 19.2786C191.14 19.2786 190.7 18.2286 190.65 18.2286C192.4 17.6886 194.18 17.5486 195.83 16.9486C197.48 16.3486 199.18 15.6886 200.81 15.0386C202.44 14.3886 204.43 14.3986 206.05 13.7186C207.67 13.0386 209.84 13.4886 211.47 12.8186C213.1 12.1486 214.06 9.59861 215.72 8.96861C217.38 8.33861 219.62 9.31861 221.34 8.78861C223.06 8.25861 224.85 8.41861 226.6 8.00861C228.35 7.59861 229.69 5.48861 231.49 5.22861C233.29 4.96861 235.03 4.72861 236.86 4.61861C238.66 4.51861 240.71 5.01861 242.93 5.11861C244.79 5.20861 246.96 4.21861 249.11 4.51861C250.98 4.78861 252.75 6.50861 254.83 6.99861C256.69 7.43861 258.46 8.77861 260.47 9.43861C258.98 8.89861 257.64 7.23861 255.96 6.69861C254.41 6.19861 252.59 6.42861 250.93 5.97861C249.27 5.52861 248.06 3.69861 246.4 3.31861C244.74 2.93861 242.8 4.17861 241.14 3.90861C239.48 3.63861 237.88 3.09861 236.23 2.95861C234.31 2.78861 232.53 3.16861 230.78 3.18861C228.86 3.20861 226.92 1.58861 225.17 1.80861C223.29 2.03861 221.74 3.85861 220.02 4.26861C218.19 4.69861 215.94 3.51861 214.23 4.06861C212.52 4.61861 211.47 7.32861 209.76 7.96861C208.05 8.60861 206.07 8.55861 204.35 9.18861C202.63 9.81861 201.2 11.4386 199.43 11.9586C197.66 12.4786 195.64 12.0786 193.8 12.4386C192.07 12.7686 190.14 12.2286 188.24 12.3686C186.49 12.4886 184.73 11.8786 182.82 11.7786C181.09 11.6886 179.19 12.6386 177.27 12.3286C175.57 12.0586 174.23 10.5986 172.7 10.2186C171 9.79861 169.55 9.21861 168.1 8.72861C166.39 8.15861 163.98 9.67861 162.63 9.10861C160.55 8.06861 160.54 7.95861 158.53 6.80861C156.71 5.55861 154.67 4.69861 151.93 3.93861C150 3.40861 148.22 1.71861 145.96 1.46861C143.96 1.24861 141.79 1.68861 139.54 1.68861C137.29 1.68861 135.31 2.86861 133.26 3.13861C131.04 3.42861 128.44 1.51861 126.46 2.12861C124.64 2.68861 124.08 5.72861 122.61 6.60861C121.02 7.55861 119.59 8.05861 118.43 9.38861C117.26 10.7186 116.57 11.9286 116.01 13.6786C115.51 15.2686 115.72 16.7486 115.72 18.6586C115.72 20.3886 113.72 22.2486 114.17 23.6686C114.67 25.2586 117.09 25.6586 118.15 26.8186C119.22 27.9786 119.62 29.9486 121.11 30.8586C122.43 31.6786 123.89 32.6186 125.56 33.2386C127.4 33.9386 129.47 34.4086 131.57 35.0386C133.48 35.5986 135.7 35.3586 137.81 35.8586C139.97 36.3886 139.64 37.7686 141.79 38.2786C143.67 38.6986 146.07 37.3786 147.3 38.1286C148.53 38.8886 148.89 40.8786 148.89 42.0486C148.89 43.0486 148.06 43.7986 147.18 44.3786C146.3 44.9586 144.74 45.7186 142.45 45.7186C140.16 45.7186 138.17 44.1086 135.92 43.2786C133.66 42.4586 130.99 42.8586 128.82 42.0086C126.65 41.1486 124.69 39.2586 122.53 39.2086C119.77 39.0986 118.01 41.6986 115.96 43.6386C114.9 44.6386 113.92 45.2886 113.41 46.6386C112.93 47.8986 111.96 49.1086 111.96 50.6586C111.96 53.1786 112.31 56.0586 114.01 57.9586C114.9 58.9586 117.34 58.2786 118.53 59.1186C119.6 59.8786 120.44 60.9286 121.75 61.5486C123.18 62.2186 124.22 63.9286 125.78 64.4386C127.34 64.9486 129.05 64.5286 130.67 64.8586C132.32 65.1886 133.85 66.2786 135.48 66.4486C137.11 66.6186 138.85 66.9286 140.51 66.9286C142.88 66.9286 145.25 67.0286 147.34 66.7486C149.69 66.4286 151.48 64.1786 153.46 63.4986C155.27 62.8786 156.35 61.6286 157.78 60.6486C159.31 59.6086 160.71 58.9986 161.8 57.5586C162.92 56.0786 164.89 55.0086 165.42 53.0386C165.88 51.3186 164.42 49.2986 164.42 47.2086C164.42 45.4886 164.57 44.1686 164.2 42.7486C163.77 41.1286 163.69 39.7186 162.77 38.4986C161.88 37.2986 160.4 36.9886 159.14 36.0286C157.99 35.1486 157.31 33.6786 155.85 33.0086C154.24 32.2586 153.09 29.9286 151.21 29.3086C149.52 28.7486 147.53 28.4486 145.62 27.9786C143.16 27.3886 143.08 27.7586 140.62 27.1586C137.4 26.3386 135.25 25.5686 133.84 24.9886C132.43 24.4086 130.85 24.3386 130.85 23.1186C130.85 22.1186 132.18 21.7886 133.24 21.1786C134.29 20.5686 135.57 19.3186 137.63 19.3186C139.91 19.3186 142.45 18.6486 144.48 19.2086C146.51 19.7686 148.27 21.0386 150.12 21.6286C151.96 22.2186 153.55 22.2286 155.25 22.2286C156.64 22.3486 158.54 23.5886 160.88 23.6586C162.58 23.7086 164.46 22.3986 166.54 22.3486C168.76 22.2886 170.95 23.6386 172.99 23.4486C175.19 23.2386 177.35 23.2386 179.39 22.8986C179.27 22.9686 179.66 23.4986 179.54 23.5686C177.83 24.5686 175.66 24.6686 174.34 26.0486C173.02 27.4286 171.54 28.8186 170.61 30.5786C169.65 32.4086 169.29 34.5886 168.83 36.7086C168.4 38.6786 169.04 40.7786 169.04 43.0086C169.04 44.6286 168.65 46.1186 168.84 47.5686C169.06 49.1686 168.96 50.7586 169.44 52.1486C169.95 53.6586 171.55 54.4786 172.37 55.7286C173.47 57.4186 173.9 59.4386 175.31 60.6886C176.72 61.9386 178.68 62.4086 180.48 63.2186C182.28 64.0086 183.63 66.3586 185.56 66.7586C187.49 67.1586 189.63 67.5186 191.63 67.5186C193.32 67.5186 194.76 64.6586 196.26 64.4886C197.95 64.3086 199.61 65.1486 201.05 64.7486C202.69 64.2986 204.07 63.6486 205.39 62.9286C207.08 62.0086 207.76 60.6886 208.64 59.4186C209.62 58.0286 210.86 56.9786 210.86 55.1586C210.86 52.2286 211.2 48.9386 209.68 47.2786C208.15 45.6086 205.15 46.2986 202.8 46.2986L202.82 46.2586L202.81 46.2786ZM195.83 34.9886C197 35.8686 197.93 36.9786 198.16 37.8086C198.45 38.6286 197.61 39.8586 196.73 39.8586C194.4 39.8586 194.4 38.3886 192.08 38.3886C189.76 38.3886 189.75 39.9686 187.41 39.9686C185.07 39.9686 184.92 40.1486 182.66 39.5786C182.66 38.4086 184.28 37.9186 185.54 36.8086C186.8 35.6986 187.82 35.2286 190.4 35.2286C192.62 35.2286 194.66 34.1086 195.84 34.9886H195.83ZM236.4 19.1886C234.53 19.3186 234.58 19.9386 232.7 20.0486C230.82 20.1586 230.56 18.7786 228.78 19.4986C227 20.2186 227.82 21.1986 226.08 21.8286C224.34 22.4586 224.31 21.2586 222.55 21.7586C220.96 22.1986 221.32 22.9286 220.24 24.1786C219.16 25.4286 219.2 25.3586 218.44 26.7686C217.68 28.1786 216.77 28.0386 216.56 29.6886C216.35 31.3386 217.23 31.3786 217.84 32.9386C218.45 34.4986 218.16 34.6986 219.34 35.8586C220.52 37.0186 220.48 37.2286 221.95 37.8486C223.62 38.5486 223.81 38.1986 225.59 38.4986C227.48 38.8086 227.48 38.4986 229.38 38.2686C231.28 38.0386 231.21 37.7786 233.08 37.2686C234.95 36.7586 234.92 36.5086 236.82 36.6086C238.84 36.7186 238.96 36.7886 240.46 38.1186C241.77 39.2786 241.21 39.6086 241.9 41.2186C242.19 41.9186 242.73 41.8086 242.77 42.5586C242.79 43.0186 242.38 42.2986 241.95 42.1386C239.12 41.1386 239.19 41.0186 236.2 40.7186C234.37 40.5386 234.44 40.8386 232.61 40.7286C230.78 40.6186 230.9 40.1786 229.08 40.0486C227.16 39.8986 227 39.4086 225.15 39.9386C223.3 40.4686 223.7 41.4986 221.96 42.3686C220.32 43.1886 219.96 42.5186 218.41 43.5086C216.97 44.4386 216.8 44.3886 215.88 45.8386C214.96 47.2886 215.54 47.4886 215.29 49.1886C215.04 50.8886 215.47 50.9086 215.14 52.5486C214.76 54.4786 213.05 54.3486 213.45 56.2586C213.85 58.1686 215.14 57.4886 216.08 59.1886C217.02 60.8886 216.24 61.1586 217.3 62.7386C218.36 64.3186 218.69 64.0686 220.44 64.9386C222.19 65.8086 222.14 65.8586 224.07 65.9486C226 66.0386 225.93 65.3986 227.83 65.4386C230.03 65.4886 229.93 66.1086 232.13 65.9186C234.33 65.7286 234.29 65.7186 236.09 64.4086C238.35 62.7386 238.7 63.0086 239.77 60.3986C240.72 58.0686 239.28 57.8286 240.32 55.5386C240.77 54.5486 241.47 54.7186 242.14 55.5786C242.84 56.4786 242.26 56.5586 242.15 57.6886C241.99 59.3586 241.2 59.4486 242 60.9286C242.8 62.4086 243.18 62.0886 244.52 63.2086C245.86 64.3286 245.45 64.7486 246.89 65.5786C248.42 66.4586 248.64 66.4586 250.4 66.6286C252.16 66.7986 252.48 67.0086 254.09 66.2286C255.7 65.4486 255.29 64.7886 256.4 63.3686C257.39 62.0986 257.38 62.0886 258.12 60.6586C258.91 59.1486 259.11 59.1886 259.19 57.4786C259.3 55.1686 258.74 55.2586 258.55 52.9586C258.36 50.6586 259.11 50.6886 259.12 48.4186C259.13 46.1486 258.63 46.1586 258.39 43.8986C258.17 41.8986 257.71 41.9586 257.75 39.9386C257.8 37.7886 259.04 37.9386 258.65 35.8186C258.26 33.6986 257.56 34.0686 256.5 32.1986C255.56 30.5486 255.97 30.3686 255.16 28.6486C254.35 26.9286 254.28 26.8786 253.03 25.4086C251.88 24.0486 251.82 23.9886 250.25 23.1586C248.68 22.3286 248.39 23.0586 246.72 22.4886C245.05 21.9186 245 21.9586 243.39 21.2286C241.61 20.4186 242.01 19.4986 240.18 18.8086C238.43 18.1486 238.23 19.0286 236.37 19.1586H236.39L236.4 19.1886ZM239.12 48.3286C237.06 49.2686 236.9 49.6486 234.63 49.5586C232.36 49.4686 232.46 48.6086 230.33 47.8086C229.05 47.3186 228.35 47.9686 228.33 46.5986C228.31 45.2286 229.01 45.9386 230.28 45.5386C232.43 44.8586 232.37 44.4186 234.6 44.1686C236.97 43.9286 237.17 43.5486 239.39 44.3986C240.49 44.8286 239.63 45.4986 239.84 46.6586C240.02 47.7086 240.02 47.9086 239.11 48.3186H239.12V48.3286ZM271.57 12.8386C271.57 12.8386 271.62 12.8586 271.66 12.8786C271.61 12.8786 271.62 12.8686 271.57 12.8386ZM260.68 8.52861C262.73 9.27861 264.6 9.96861 266.18 10.6086C269.18 11.8186 271.15 12.7186 271.54 12.9086C269.71 12.0186 267.96 11.1486 266.23 10.4386C264.34 9.66861 262.46 9.09861 260.68 8.51861V8.52861Z" fill="white"/>
</svg>
